<mxfile host="Electron" modified="2023-05-30T20:12:16.771Z" agent="Mozilla/5.0 (Macintosh; Intel Mac OS X 10_15_7) AppleWebKit/537.36 (KHTML, like Gecko) draw.io/21.2.8 Chrome/112.0.5615.165 Electron/24.2.0 Safari/537.36" etag="lJKvVhrH0owA1hfO_KC8" version="21.2.8" type="device">
  <diagram name="P치gina-1" id="1eOg2yv2-5yLqq-wgjRF">
    <mxGraphModel dx="2498" dy="2094" grid="1" gridSize="10" guides="1" tooltips="1" connect="1" arrows="1" fold="1" page="1" pageScale="1" pageWidth="827" pageHeight="1169" math="0" shadow="0">
      <root>
        <mxCell id="0" />
        <mxCell id="1" parent="0" />
        <mxCell id="ihicC-zqsx4sdmfY6xne-1" value="Registro" style="ellipse;whiteSpace=wrap;html=1;fillColor=#6666FF;strokeColor=#82b366;" parent="1" vertex="1">
          <mxGeometry x="-260" y="-70" width="140" height="70" as="geometry" />
        </mxCell>
        <mxCell id="ihicC-zqsx4sdmfY6xne-2" value="&lt;font color=&quot;#00cc00&quot;&gt;Usuario cliente&lt;/font&gt;" style="shape=umlActor;verticalLabelPosition=bottom;verticalAlign=top;html=1;" parent="1" vertex="1">
          <mxGeometry x="-540" y="225" width="30" height="60" as="geometry" />
        </mxCell>
        <mxCell id="ihicC-zqsx4sdmfY6xne-5" value="&lt;font color=&quot;#b266ff&quot;&gt;Administrador&lt;/font&gt;" style="shape=umlActor;verticalLabelPosition=bottom;verticalAlign=top;html=1;" parent="1" vertex="1">
          <mxGeometry x="-480" y="555" width="30" height="60" as="geometry" />
        </mxCell>
        <mxCell id="ihicC-zqsx4sdmfY6xne-9" value="" style="endArrow=classic;html=1;rounded=0;entryX=0;entryY=0;entryDx=0;entryDy=0;" parent="1" source="ihicC-zqsx4sdmfY6xne-60" target="ihicC-zqsx4sdmfY6xne-10" edge="1">
          <mxGeometry width="50" height="50" relative="1" as="geometry">
            <mxPoint x="-240" y="280" as="sourcePoint" />
            <mxPoint x="-190" y="230" as="targetPoint" />
          </mxGeometry>
        </mxCell>
        <mxCell id="ihicC-zqsx4sdmfY6xne-10" value="Inicio sesi칩n" style="ellipse;whiteSpace=wrap;html=1;fillColor=#f8cecc;strokeColor=#b85450;" parent="1" vertex="1">
          <mxGeometry x="-210" y="220" width="140" height="70" as="geometry" />
        </mxCell>
        <mxCell id="ihicC-zqsx4sdmfY6xne-11" value="Cerrar sesi칩n" style="ellipse;whiteSpace=wrap;html=1;fillColor=#d5e8d4;strokeColor=#82b366;" parent="1" vertex="1">
          <mxGeometry x="-20" y="-70" width="140" height="70" as="geometry" />
        </mxCell>
        <mxCell id="ihicC-zqsx4sdmfY6xne-12" value="&amp;lt;&amp;lt;extend&amp;gt;&amp;gt;" style="html=1;verticalAlign=bottom;labelBackgroundColor=none;endArrow=open;endFill=0;dashed=1;rounded=0;exitX=0.456;exitY=1.012;exitDx=0;exitDy=0;exitPerimeter=0;" parent="1" source="ihicC-zqsx4sdmfY6xne-11" target="ihicC-zqsx4sdmfY6xne-10" edge="1">
          <mxGeometry width="160" relative="1" as="geometry">
            <mxPoint x="10" y="10" as="sourcePoint" />
            <mxPoint x="-110" y="170" as="targetPoint" />
          </mxGeometry>
        </mxCell>
        <mxCell id="ihicC-zqsx4sdmfY6xne-14" value="&amp;lt;&amp;lt;include&amp;gt;&amp;gt;" style="html=1;verticalAlign=bottom;labelBackgroundColor=none;endArrow=open;endFill=0;dashed=1;rounded=0;entryX=0.5;entryY=1;entryDx=0;entryDy=0;exitX=0.5;exitY=0;exitDx=0;exitDy=0;" parent="1" source="ihicC-zqsx4sdmfY6xne-10" target="ihicC-zqsx4sdmfY6xne-1" edge="1">
          <mxGeometry width="160" relative="1" as="geometry">
            <mxPoint x="-80" y="160" as="sourcePoint" />
            <mxPoint x="70" y="170" as="targetPoint" />
          </mxGeometry>
        </mxCell>
        <mxCell id="ihicC-zqsx4sdmfY6xne-20" value="" style="endArrow=block;html=1;rounded=0;align=center;verticalAlign=bottom;endFill=0;labelBackgroundColor=none;endSize=8;exitX=0.5;exitY=0;exitDx=0;exitDy=0;exitPerimeter=0;" parent="1" source="ihicC-zqsx4sdmfY6xne-5" target="ihicC-zqsx4sdmfY6xne-2" edge="1">
          <mxGeometry relative="1" as="geometry">
            <mxPoint x="-365.53" y="320" as="sourcePoint" />
            <mxPoint x="-365.53" y="170" as="targetPoint" />
          </mxGeometry>
        </mxCell>
        <mxCell id="ihicC-zqsx4sdmfY6xne-21" value="" style="resizable=0;html=1;align=center;verticalAlign=top;labelBackgroundColor=none;" parent="ihicC-zqsx4sdmfY6xne-20" connectable="0" vertex="1">
          <mxGeometry relative="1" as="geometry" />
        </mxCell>
        <mxCell id="ihicC-zqsx4sdmfY6xne-22" value="" style="endArrow=classic;html=1;rounded=0;entryX=0;entryY=0.5;entryDx=0;entryDy=0;" parent="1" source="ihicC-zqsx4sdmfY6xne-2" target="ihicC-zqsx4sdmfY6xne-10" edge="1">
          <mxGeometry width="50" height="50" relative="1" as="geometry">
            <mxPoint x="-240" y="280" as="sourcePoint" />
            <mxPoint x="-130" y="375" as="targetPoint" />
            <Array as="points" />
          </mxGeometry>
        </mxCell>
        <mxCell id="ihicC-zqsx4sdmfY6xne-23" value="Tienda vinos&lt;br&gt;a침adir al carro" style="ellipse;whiteSpace=wrap;html=1;fillColor=#d5e8d4;strokeColor=#82b366;" parent="1" vertex="1">
          <mxGeometry x="260" y="-160" width="140" height="70" as="geometry" />
        </mxCell>
        <mxCell id="ihicC-zqsx4sdmfY6xne-24" value="Alta admin" style="ellipse;whiteSpace=wrap;html=1;fillColor=#e1d5e7;strokeColor=#9673a6;" parent="1" vertex="1">
          <mxGeometry x="-100" y="610" width="140" height="70" as="geometry" />
        </mxCell>
        <mxCell id="ihicC-zqsx4sdmfY6xne-25" value="Carrito" style="ellipse;whiteSpace=wrap;html=1;fillColor=#d5e8d4;strokeColor=#82b366;" parent="1" vertex="1">
          <mxGeometry x="340" y="80" width="140" height="70" as="geometry" />
        </mxCell>
        <mxCell id="ihicC-zqsx4sdmfY6xne-26" value="Cheackout" style="ellipse;whiteSpace=wrap;html=1;fillColor=#d5e8d4;strokeColor=#82b366;" parent="1" vertex="1">
          <mxGeometry x="560" y="80" width="140" height="70" as="geometry" />
        </mxCell>
        <mxCell id="ihicC-zqsx4sdmfY6xne-27" value="&amp;lt;&amp;lt;extend&amp;gt;&amp;gt;" style="html=1;verticalAlign=bottom;labelBackgroundColor=none;endArrow=open;endFill=0;dashed=1;rounded=0;exitX=0.5;exitY=0;exitDx=0;exitDy=0;" parent="1" source="ihicC-zqsx4sdmfY6xne-25" target="ihicC-zqsx4sdmfY6xne-23" edge="1">
          <mxGeometry width="160" relative="1" as="geometry">
            <mxPoint x="300" y="120" as="sourcePoint" />
            <mxPoint x="230" y="265" as="targetPoint" />
          </mxGeometry>
        </mxCell>
        <mxCell id="ihicC-zqsx4sdmfY6xne-28" value="&amp;lt;&amp;lt;extend&amp;gt;&amp;gt;" style="html=1;verticalAlign=bottom;labelBackgroundColor=none;endArrow=open;endFill=0;dashed=1;rounded=0;exitX=0;exitY=1;exitDx=0;exitDy=0;entryX=1;entryY=0;entryDx=0;entryDy=0;" parent="1" source="ihicC-zqsx4sdmfY6xne-23" target="ihicC-zqsx4sdmfY6xne-10" edge="1">
          <mxGeometry width="160" relative="1" as="geometry">
            <mxPoint x="90" y="113.5" as="sourcePoint" />
            <mxPoint x="20" y="116.5" as="targetPoint" />
          </mxGeometry>
        </mxCell>
        <mxCell id="ihicC-zqsx4sdmfY6xne-29" value="Tarjetas" style="ellipse;whiteSpace=wrap;html=1;fillColor=#d5e8d4;strokeColor=#82b366;" parent="1" vertex="1">
          <mxGeometry x="660" y="-100" width="140" height="70" as="geometry" />
        </mxCell>
        <mxCell id="ihicC-zqsx4sdmfY6xne-30" value="Direcciones" style="ellipse;whiteSpace=wrap;html=1;fillColor=#d5e8d4;strokeColor=#82b366;" parent="1" vertex="1">
          <mxGeometry x="480" y="-100" width="140" height="70" as="geometry" />
        </mxCell>
        <mxCell id="ihicC-zqsx4sdmfY6xne-31" value="&amp;lt;&amp;lt;extend&amp;gt;&amp;gt;" style="html=1;verticalAlign=bottom;labelBackgroundColor=none;endArrow=open;endFill=0;dashed=1;rounded=0;exitX=0;exitY=0.5;exitDx=0;exitDy=0;entryX=1;entryY=0.5;entryDx=0;entryDy=0;" parent="1" source="ihicC-zqsx4sdmfY6xne-26" target="ihicC-zqsx4sdmfY6xne-25" edge="1">
          <mxGeometry width="160" relative="1" as="geometry">
            <mxPoint x="560" y="114.5" as="sourcePoint" />
            <mxPoint x="470" y="114.5" as="targetPoint" />
          </mxGeometry>
        </mxCell>
        <mxCell id="ihicC-zqsx4sdmfY6xne-34" value="Eliminar del carrito" style="ellipse;whiteSpace=wrap;html=1;fillColor=#d5e8d4;strokeColor=#82b366;" parent="1" vertex="1">
          <mxGeometry x="520" y="210" width="140" height="70" as="geometry" />
        </mxCell>
        <mxCell id="ihicC-zqsx4sdmfY6xne-36" value="Ver pedidos realizados" style="ellipse;whiteSpace=wrap;html=1;fillColor=#d5e8d4;strokeColor=#82b366;" parent="1" vertex="1">
          <mxGeometry x="200" y="215" width="140" height="70" as="geometry" />
        </mxCell>
        <mxCell id="ihicC-zqsx4sdmfY6xne-37" value="&amp;lt;&amp;lt;extend&amp;gt;&amp;gt;" style="html=1;verticalAlign=bottom;labelBackgroundColor=none;endArrow=open;endFill=0;dashed=1;rounded=0;exitX=0;exitY=0.5;exitDx=0;exitDy=0;entryX=1;entryY=0.5;entryDx=0;entryDy=0;" parent="1" source="ihicC-zqsx4sdmfY6xne-36" target="ihicC-zqsx4sdmfY6xne-10" edge="1">
          <mxGeometry x="0.1169" y="16" width="160" relative="1" as="geometry">
            <mxPoint x="100" y="123.5" as="sourcePoint" />
            <mxPoint x="10" y="125" as="targetPoint" />
            <mxPoint as="offset" />
          </mxGeometry>
        </mxCell>
        <mxCell id="ihicC-zqsx4sdmfY6xne-38" value="Modificar datos usuario" style="ellipse;whiteSpace=wrap;html=1;fillColor=#d5e8d4;strokeColor=#82b366;" parent="1" vertex="1">
          <mxGeometry x="300" y="310" width="140" height="70" as="geometry" />
        </mxCell>
        <mxCell id="ihicC-zqsx4sdmfY6xne-39" value="&amp;lt;&amp;lt;extend&amp;gt;&amp;gt;" style="html=1;verticalAlign=bottom;labelBackgroundColor=none;endArrow=open;endFill=0;dashed=1;rounded=0;exitX=0;exitY=0;exitDx=0;exitDy=0;entryX=1;entryY=1;entryDx=0;entryDy=0;" parent="1" source="ihicC-zqsx4sdmfY6xne-38" target="ihicC-zqsx4sdmfY6xne-10" edge="1">
          <mxGeometry x="0.1169" y="16" width="160" relative="1" as="geometry">
            <mxPoint x="101" y="277.5" as="sourcePoint" />
            <mxPoint x="-70" y="170" as="targetPoint" />
            <mxPoint as="offset" />
          </mxGeometry>
        </mxCell>
        <mxCell id="ihicC-zqsx4sdmfY6xne-41" value="Ver productos" style="ellipse;whiteSpace=wrap;html=1;fillColor=#e1d5e7;strokeColor=#9673a6;" parent="1" vertex="1">
          <mxGeometry x="-260" y="470" width="140" height="70" as="geometry" />
        </mxCell>
        <mxCell id="ihicC-zqsx4sdmfY6xne-42" value="Ver compras hoy" style="ellipse;whiteSpace=wrap;html=1;fillColor=#e1d5e7;strokeColor=#9673a6;" parent="1" vertex="1">
          <mxGeometry x="70" y="590" width="140" height="70" as="geometry" />
        </mxCell>
        <mxCell id="ihicC-zqsx4sdmfY6xne-43" value="" style="endArrow=classic;html=1;rounded=0;entryX=0;entryY=1;entryDx=0;entryDy=0;exitX=0.5;exitY=0.5;exitDx=0;exitDy=0;exitPerimeter=0;" parent="1" source="ihicC-zqsx4sdmfY6xne-5" target="ihicC-zqsx4sdmfY6xne-10" edge="1">
          <mxGeometry width="50" height="50" relative="1" as="geometry">
            <mxPoint x="-340" y="141" as="sourcePoint" />
            <mxPoint x="-180" y="255" as="targetPoint" />
            <Array as="points" />
          </mxGeometry>
        </mxCell>
        <mxCell id="ihicC-zqsx4sdmfY6xne-44" value="&amp;lt;&amp;lt;include&amp;gt;&amp;gt;" style="html=1;verticalAlign=bottom;labelBackgroundColor=none;endArrow=open;endFill=0;dashed=1;rounded=0;exitX=0.5;exitY=1;exitDx=0;exitDy=0;entryX=0;entryY=0;entryDx=0;entryDy=0;" parent="1" source="ihicC-zqsx4sdmfY6xne-30" target="ihicC-zqsx4sdmfY6xne-26" edge="1">
          <mxGeometry width="160" relative="1" as="geometry">
            <mxPoint x="470" y="-31.049999999999997" as="sourcePoint" />
            <mxPoint x="630" y="-31.049999999999997" as="targetPoint" />
          </mxGeometry>
        </mxCell>
        <mxCell id="ihicC-zqsx4sdmfY6xne-45" value="&amp;lt;&amp;lt;include&amp;gt;&amp;gt;" style="html=1;verticalAlign=bottom;labelBackgroundColor=none;endArrow=open;endFill=0;dashed=1;rounded=0;exitX=0.5;exitY=1;exitDx=0;exitDy=0;entryX=1;entryY=0;entryDx=0;entryDy=0;" parent="1" source="ihicC-zqsx4sdmfY6xne-29" target="ihicC-zqsx4sdmfY6xne-26" edge="1">
          <mxGeometry width="160" relative="1" as="geometry">
            <mxPoint x="490" y="-20" as="sourcePoint" />
            <mxPoint x="608" y="94" as="targetPoint" />
          </mxGeometry>
        </mxCell>
        <mxCell id="ihicC-zqsx4sdmfY6xne-46" value="&amp;lt;&amp;lt;extend&amp;gt;&amp;gt;" style="html=1;verticalAlign=bottom;labelBackgroundColor=none;endArrow=open;endFill=0;dashed=1;rounded=0;exitX=0.5;exitY=0;exitDx=0;exitDy=0;entryX=1;entryY=1;entryDx=0;entryDy=0;" parent="1" source="ihicC-zqsx4sdmfY6xne-41" edge="1">
          <mxGeometry x="0.1169" y="16" width="160" relative="1" as="geometry">
            <mxPoint x="256" y="330" as="sourcePoint" />
            <mxPoint x="-156" y="290" as="targetPoint" />
            <mxPoint as="offset" />
          </mxGeometry>
        </mxCell>
        <mxCell id="ihicC-zqsx4sdmfY6xne-47" value="Modificar productos" style="ellipse;whiteSpace=wrap;html=1;fillColor=#e1d5e7;strokeColor=#9673a6;" parent="1" vertex="1">
          <mxGeometry x="-280" y="640" width="140" height="70" as="geometry" />
        </mxCell>
        <mxCell id="ihicC-zqsx4sdmfY6xne-48" value="&amp;lt;&amp;lt;include&amp;gt;&amp;gt;" style="html=1;verticalAlign=bottom;labelBackgroundColor=none;endArrow=open;endFill=0;dashed=1;rounded=0;entryX=1;entryY=1;entryDx=0;entryDy=0;" parent="1" source="ihicC-zqsx4sdmfY6xne-34" target="ihicC-zqsx4sdmfY6xne-25" edge="1">
          <mxGeometry width="160" relative="1" as="geometry">
            <mxPoint x="530" y="190" as="sourcePoint" />
            <mxPoint x="470" y="300" as="targetPoint" />
          </mxGeometry>
        </mxCell>
        <mxCell id="ihicC-zqsx4sdmfY6xne-49" value="&amp;lt;&amp;lt;include&amp;gt;&amp;gt;" style="html=1;verticalAlign=bottom;labelBackgroundColor=none;endArrow=open;endFill=0;dashed=1;rounded=0;exitX=0.5;exitY=0;exitDx=0;exitDy=0;" parent="1" source="ihicC-zqsx4sdmfY6xne-47" target="ihicC-zqsx4sdmfY6xne-41" edge="1">
          <mxGeometry width="160" relative="1" as="geometry">
            <mxPoint x="-160" y="600" as="sourcePoint" />
            <mxPoint x="-59" y="720" as="targetPoint" />
          </mxGeometry>
        </mxCell>
        <mxCell id="ihicC-zqsx4sdmfY6xne-50" value="&amp;lt;&amp;lt;extend&amp;gt;&amp;gt;" style="html=1;verticalAlign=bottom;labelBackgroundColor=none;endArrow=open;endFill=0;dashed=1;rounded=0;exitX=0.5;exitY=0;exitDx=0;exitDy=0;entryX=0.5;entryY=1;entryDx=0;entryDy=0;" parent="1" source="ihicC-zqsx4sdmfY6xne-24" target="ihicC-zqsx4sdmfY6xne-10" edge="1">
          <mxGeometry x="0.1169" y="16" width="160" relative="1" as="geometry">
            <mxPoint x="30" y="480" as="sourcePoint" />
            <mxPoint x="34" y="300" as="targetPoint" />
            <mxPoint as="offset" />
          </mxGeometry>
        </mxCell>
        <mxCell id="ihicC-zqsx4sdmfY6xne-51" value="&amp;lt;&amp;lt;extend&amp;gt;&amp;gt;" style="html=1;verticalAlign=bottom;labelBackgroundColor=none;endArrow=open;endFill=0;dashed=1;rounded=0;exitX=0;exitY=0;exitDx=0;exitDy=0;entryX=0.5;entryY=1;entryDx=0;entryDy=0;" parent="1" source="ihicC-zqsx4sdmfY6xne-42" target="ihicC-zqsx4sdmfY6xne-10" edge="1">
          <mxGeometry x="0.1169" y="16" width="160" relative="1" as="geometry">
            <mxPoint x="200" y="585" as="sourcePoint" />
            <mxPoint x="80" y="275" as="targetPoint" />
            <mxPoint as="offset" />
          </mxGeometry>
        </mxCell>
        <mxCell id="ihicC-zqsx4sdmfY6xne-52" value="Lista de clientes con compras" style="ellipse;whiteSpace=wrap;html=1;fillColor=#e1d5e7;strokeColor=#9673a6;" parent="1" vertex="1">
          <mxGeometry x="170" y="515" width="140" height="70" as="geometry" />
        </mxCell>
        <mxCell id="ihicC-zqsx4sdmfY6xne-53" value="&amp;lt;&amp;lt;extend&amp;gt;&amp;gt;" style="html=1;verticalAlign=bottom;labelBackgroundColor=none;endArrow=open;endFill=0;dashed=1;rounded=0;exitX=0;exitY=0;exitDx=0;exitDy=0;entryX=1;entryY=1;entryDx=0;entryDy=0;" parent="1" source="ihicC-zqsx4sdmfY6xne-52" target="ihicC-zqsx4sdmfY6xne-10" edge="1">
          <mxGeometry x="0.1169" y="16" width="160" relative="1" as="geometry">
            <mxPoint x="151" y="590" as="sourcePoint" />
            <mxPoint x="-90" y="300" as="targetPoint" />
            <mxPoint as="offset" />
          </mxGeometry>
        </mxCell>
        <mxCell id="ihicC-zqsx4sdmfY6xne-54" value="Usuario cliente&amp;nbsp;" style="ellipse;whiteSpace=wrap;html=1;fillColor=#e1d5e7;strokeColor=#9673a6;" parent="1" vertex="1">
          <mxGeometry x="250" y="430" width="140" height="70" as="geometry" />
        </mxCell>
        <mxCell id="ihicC-zqsx4sdmfY6xne-55" value="&amp;lt;&amp;lt;extend&amp;gt;&amp;gt;" style="html=1;verticalAlign=bottom;labelBackgroundColor=none;endArrow=open;endFill=0;dashed=1;rounded=0;exitX=0;exitY=0;exitDx=0;exitDy=0;entryX=1;entryY=1;entryDx=0;entryDy=0;" parent="1" source="ihicC-zqsx4sdmfY6xne-54" edge="1">
          <mxGeometry x="0.1169" y="16" width="160" relative="1" as="geometry">
            <mxPoint x="191" y="525" as="sourcePoint" />
            <mxPoint x="-91" y="280" as="targetPoint" />
            <mxPoint as="offset" />
          </mxGeometry>
        </mxCell>
        <mxCell id="ihicC-zqsx4sdmfY6xne-56" value="Modificar" style="ellipse;whiteSpace=wrap;html=1;fillColor=#e1d5e7;strokeColor=#9673a6;" parent="1" vertex="1">
          <mxGeometry x="520" y="430" width="140" height="70" as="geometry" />
        </mxCell>
        <mxCell id="ihicC-zqsx4sdmfY6xne-57" value="Borrar" style="ellipse;whiteSpace=wrap;html=1;fillColor=#e1d5e7;strokeColor=#9673a6;" parent="1" vertex="1">
          <mxGeometry x="470" y="550" width="140" height="70" as="geometry" />
        </mxCell>
        <mxCell id="ihicC-zqsx4sdmfY6xne-58" value="&amp;lt;&amp;lt;include&amp;gt;&amp;gt;" style="html=1;verticalAlign=bottom;labelBackgroundColor=none;endArrow=open;endFill=0;dashed=1;rounded=0;exitX=0;exitY=0.5;exitDx=0;exitDy=0;entryX=1;entryY=0.5;entryDx=0;entryDy=0;" parent="1" source="ihicC-zqsx4sdmfY6xne-56" target="ihicC-zqsx4sdmfY6xne-54" edge="1">
          <mxGeometry width="160" relative="1" as="geometry">
            <mxPoint x="500" y="450" as="sourcePoint" />
            <mxPoint x="515" y="350" as="targetPoint" />
          </mxGeometry>
        </mxCell>
        <mxCell id="ihicC-zqsx4sdmfY6xne-59" value="&amp;lt;&amp;lt;include&amp;gt;&amp;gt;" style="html=1;verticalAlign=bottom;labelBackgroundColor=none;endArrow=open;endFill=0;dashed=1;rounded=0;exitX=0;exitY=0;exitDx=0;exitDy=0;entryX=1;entryY=1;entryDx=0;entryDy=0;" parent="1" source="ihicC-zqsx4sdmfY6xne-57" target="ihicC-zqsx4sdmfY6xne-54" edge="1">
          <mxGeometry width="160" relative="1" as="geometry">
            <mxPoint x="530" y="475" as="sourcePoint" />
            <mxPoint x="400" y="475" as="targetPoint" />
          </mxGeometry>
        </mxCell>
        <mxCell id="ihicC-zqsx4sdmfY6xne-60" value="&lt;font color=&quot;#6666ff&quot;&gt;Usuario invitado&lt;/font&gt;" style="shape=umlActor;verticalLabelPosition=bottom;verticalAlign=top;html=1;" parent="1" vertex="1">
          <mxGeometry x="-470" y="-140" width="30" height="60" as="geometry" />
        </mxCell>
        <mxCell id="ihicC-zqsx4sdmfY6xne-61" value="" style="endArrow=block;html=1;rounded=0;align=center;verticalAlign=bottom;endFill=0;labelBackgroundColor=none;endSize=8;exitX=0.5;exitY=0;exitDx=0;exitDy=0;exitPerimeter=0;" parent="1" source="ihicC-zqsx4sdmfY6xne-2" target="ihicC-zqsx4sdmfY6xne-60" edge="1">
          <mxGeometry relative="1" as="geometry">
            <mxPoint x="-365" y="190" as="sourcePoint" />
            <mxPoint x="-365.53" y="-100" as="targetPoint" />
          </mxGeometry>
        </mxCell>
        <mxCell id="ihicC-zqsx4sdmfY6xne-62" value="" style="resizable=0;html=1;align=center;verticalAlign=top;labelBackgroundColor=none;" parent="ihicC-zqsx4sdmfY6xne-61" connectable="0" vertex="1">
          <mxGeometry relative="1" as="geometry" />
        </mxCell>
        <mxCell id="ihicC-zqsx4sdmfY6xne-66" value="" style="endArrow=classic;html=1;rounded=0;entryX=0;entryY=0.5;entryDx=0;entryDy=0;" parent="1" source="ihicC-zqsx4sdmfY6xne-60" target="ihicC-zqsx4sdmfY6xne-1" edge="1">
          <mxGeometry width="50" height="50" relative="1" as="geometry">
            <mxPoint x="-430" y="-10" as="sourcePoint" />
            <mxPoint x="-179" y="240" as="targetPoint" />
          </mxGeometry>
        </mxCell>
        <mxCell id="ihicC-zqsx4sdmfY6xne-68" value="&amp;lt;&amp;lt;include&amp;gt;&amp;gt;" style="html=1;verticalAlign=bottom;labelBackgroundColor=none;endArrow=open;endFill=0;dashed=1;rounded=0;exitX=0;exitY=1;exitDx=0;exitDy=0;entryX=0.967;entryY=0.238;entryDx=0;entryDy=0;entryPerimeter=0;" parent="1" target="ihicC-zqsx4sdmfY6xne-10" edge="1" source="ihicC-zqsx4sdmfY6xne-25">
          <mxGeometry width="160" relative="1" as="geometry">
            <mxPoint x="320" y="120" as="sourcePoint" />
            <mxPoint x="260" y="230" as="targetPoint" />
          </mxGeometry>
        </mxCell>
        <mxCell id="ihicC-zqsx4sdmfY6xne-69" value="" style="endArrow=classic;html=1;rounded=0;entryX=0;entryY=0.5;entryDx=0;entryDy=0;exitX=0.75;exitY=0.1;exitDx=0;exitDy=0;exitPerimeter=0;" parent="1" target="ihicC-zqsx4sdmfY6xne-23" edge="1" source="ihicC-zqsx4sdmfY6xne-60">
          <mxGeometry width="50" height="50" relative="1" as="geometry">
            <mxPoint x="-440" y="-20" as="sourcePoint" />
            <mxPoint x="-260" y="-20" as="targetPoint" />
          </mxGeometry>
        </mxCell>
      </root>
    </mxGraphModel>
  </diagram>
</mxfile>
